<svg width="148" height="99" viewBox="0 0 148 99" fill="none" xmlns="http://www.w3.org/2000/svg">
<path d="M17 3H74H131C131 3 125.673 56.64 125.673 71.04C125.673 85.44 131 93 131 93H74H17C17 93 22.3271 85.26 22.3271 71.04C22.3271 56.82 17 3 17 3Z" fill="#59A7ED"/>
<ellipse cx="74" cy="93.5" rx="57" ry="5.5" fill="#59A7ED"/>
<path d="M74 99C114.869 99 148 96.3982 148 93.1887C148 93.1887 137.778 86.0257 134.24 82.0943C130.702 78.1629 125.5 71 125.5 71C125.5 74.2095 105.48 76.8113 74 76.8113C42.5198 76.8113 22.5 74.2095 22.5 71C22.5 71 17.4824 78.1646 13.9 82.0943C10.3176 86.024 0 93.1887 0 93.1887C0 96.3982 33.1309 99 74 99Z" fill="#5EA2E0"/>
<ellipse cx="74" cy="3" rx="57" ry="3" fill="#67B7FF"/>
</svg>
