<svg width="142" height="110" viewBox="0 0 142 110" fill="none" xmlns="http://www.w3.org/2000/svg">
<path d="M71.0059 8.58813C103.063 8.58813 131.144 24.3909 136.319 53.5256C137.617 60.8289 137.633 72.3342 137.295 82.1985C137.127 87.0917 136.876 91.5159 136.666 94.717C136.593 95.8345 136.524 96.8023 136.467 97.5881H5.56152C5.4971 96.6356 5.41605 95.4203 5.33008 94.0032C5.11122 90.3953 4.84963 85.4845 4.6748 80.2659C4.4998 75.0417 4.41304 69.5358 4.54297 64.7307C4.67511 59.8442 5.02773 55.938 5.6377 53.7629C13.7416 24.8662 39.1897 8.58816 71.0059 8.58813Z" fill="#67B7FF" stroke="#59A7ED" stroke-width="5"/>
<path d="M7.15819 53.0881C4.50832 63.1186 7.15819 100.088 7.15819 100.088H134.851C134.851 100.088 137.393 68.2772 134.851 53.0881C129.695 22.2774 101.811 6.08813 71.0045 6.08813C40.1978 6.08813 15.1329 22.9018 7.15819 53.0881Z" fill="#67B7FF"/>
<path d="M1.28643 100.5C-1.60804 102.527 1.28643 110 1.28643 110C1.28643 110 36.0903 100.5 71.0262 100.5C105.962 100.5 140.766 110 140.766 110C140.766 110 143.543 103.57 140.766 100.5C135.134 94.2723 108.114 88.5 71.0262 88.5C33.9388 88.5 9.99723 94.3985 1.28643 100.5Z" fill="#59A7ED"/>
<path d="M66 5C66 2.23858 68.2386 0 71 0C73.7614 0 76 2.23858 76 5V7H66V5Z" fill="#59A7ED"/>
<path d="M70.9805 90.0881L70.9805 8.08813" stroke="#59A7ED" stroke-linecap="round"/>
</svg>
