<svg width="303" height="128" viewBox="0 0 303 128" fill="none" xmlns="http://www.w3.org/2000/svg">
<path d="M0.339111 103L75.8391 110.35C105.186 112.952 121.284 124 151.339 124C181.394 124 197.492 112.952 226.839 110.35L302.339 103.262" stroke="#F2C979" stroke-width="7"/>
<path d="M224.017 94.1763C254.527 95.6097 302.018 99.9116 302.018 99.9116V101.345L226.598 109.088C197.282 111.931 181.202 124 151.178 124C121.155 124 105.074 111.931 75.7587 109.088L0.339111 101.059V99.9116C0.339111 99.9116 52.0267 95.5656 85.222 94.1763C118.417 92.7869 193.507 92.7429 224.017 94.1763Z" fill="#FFD177"/>
<path d="M153.473 2.61682C184.01 2.61687 210.86 18.3589 215.818 47.5651C217.061 54.8854 217.075 66.4089 216.752 76.2789C216.591 81.1767 216.351 85.6053 216.15 88.8092C216.08 89.9246 216.015 90.891 215.96 91.6764H91.0017C90.9402 90.7239 90.864 89.5097 90.782 88.0944C90.5727 84.4836 90.3213 79.5687 90.1541 74.3453C89.9867 69.1168 89.9038 63.6049 90.0281 58.7936C90.1544 53.9038 90.4921 49.9831 91.0789 47.7936C98.8399 18.8343 123.167 2.61682 153.473 2.61682Z" fill="#FFD177" stroke="#F2C979" stroke-width="5"/>
<path d="M92.4625 47C89.9349 57.0305 92.4625 94 92.4625 94H214.262C214.262 94 216.686 62.189 214.262 47C209.343 16.1893 182.747 0 153.362 0C123.977 0 100.069 16.8137 92.4625 47Z" fill="#FFD177"/>
<path d="M154.055 77.1982C176.638 77.1591 209.815 72.1316 218.789 70.7036C220.01 70.5092 221.068 71.4664 221.302 72.6807C221.644 74.4576 222.296 75.4563 222.296 79.2644V89.0144C222.296 90.735 219.277 94.0843 219.277 94.0843C219.277 94.0843 167.01 100.194 153.473 99.236C139.935 98.2777 131.363 94.9514 119.114 94.0843C106.865 93.2172 87.6681 94.0843 87.6681 94.0843C87.6681 94.0843 87.1081 92.2461 86.6559 87.2938C86.5436 86.0648 86.8244 84.6782 87.1207 83.2111L87.6681 78.4041C87.5801 76.8642 86.755 74.6835 86.2458 72.7071C85.9328 71.4924 86.9699 70.5122 88.2091 70.7066C97.4099 72.1498 131.463 77.2373 154.055 77.1982Z" fill="#C72A2A"/>
<mask id="mask0_96_172" style="mask-type:alpha" maskUnits="userSpaceOnUse" x="86" y="70" width="137" height="30">
<path d="M154.055 77.1982C176.638 77.1591 209.815 72.1316 218.789 70.7036C220.01 70.5092 221.068 71.4664 221.302 72.6807C221.644 74.4576 222.296 75.4563 222.296 79.2644V89.0144C222.296 90.735 219.277 94.0843 219.277 94.0843C219.277 94.0843 167.01 100.194 153.473 99.236C139.935 98.2777 131.363 94.9514 119.114 94.0843C106.865 93.2172 87.6681 94.0843 87.6681 94.0843C87.6681 94.0843 87.1081 92.2461 86.6559 87.2938C86.5436 86.0648 86.8244 84.6782 87.1207 83.2111L87.6681 78.4041C87.5801 76.8642 86.755 74.6835 86.2458 72.7071C85.9328 71.4924 86.9699 70.5122 88.2091 70.7066C97.4099 72.1498 131.463 77.2373 154.055 77.1982Z" fill="#C72A2A"/>
</mask>
<g mask="url(#mask0_96_172)">
<path d="M100.736 90.2143L133.393 87.3139C134.003 87.2596 134.005 86.3665 133.393 86.3186C115.484 84.9137 88.335 82.8022 83.9228 82.5294C83.6135 82.5103 83.3869 82.779 83.4392 83.0844L84.8027 91.049C84.8464 91.3043 85.0778 91.484 85.3359 91.463L100.736 90.2143Z" fill="#A21111"/>
<path d="M169.126 82.2682L216.864 84.9999L226.774 84.9999C227.112 84.9999 227.353 84.6703 227.25 84.3477L224.469 75.647C224.396 75.4169 224.168 75.2723 223.929 75.3033L203.778 77.9089L169.106 81.2714C168.492 81.3309 168.51 82.2329 169.126 82.2682Z" fill="#A21111"/>
</g>
</svg>
