<svg width="228" height="148" viewBox="0 0 228 148" fill="none" xmlns="http://www.w3.org/2000/svg">
<path d="M57 3H114H171C171 3 165.673 82.268 165.673 103.548C165.673 124.828 171 136 171 136H114H57C57 136 62.3271 124.562 62.3271 103.548C62.3271 82.534 57 3 57 3Z" fill="#151515"/>
<ellipse cx="114" cy="136.5" rx="57" ry="5.5" fill="#151515"/>
<ellipse cx="114" cy="136.5" rx="114" ry="11.5" fill="#151515"/>
<path d="M114 142C145.48 142 171 139.398 171 136.189C171 135.342 169.518 130.421 168.25 125.094C167.301 121.111 166.472 116.901 166.472 114C166.472 117.21 145.48 119.811 114 119.811C82.5198 119.811 61.7944 117.21 61.7944 114L59.3972 125.094L57 136.189C57 139.398 82.5198 142 114 142Z" fill="#C72A2A"/>
<ellipse cx="114" cy="3" rx="57" ry="3" fill="#323131"/>
</svg>
