<svg width="325" height="331" viewBox="0 0 325 331" fill="none" xmlns="http://www.w3.org/2000/svg">
<path d="M131 121.632C131 121.632 149.72 126.198 161.94 126.263C174.159 126.328 194 117 194 117C194 117 190.497 138.119 190.497 141.895C190.497 145.67 190.497 154.053 190.497 166.789C188.162 181.54 185.29 191.105 185.29 191.105C185.29 191.105 183.502 179.369 182.325 177.211C181.148 175.052 177.655 171.975 177.655 171.975L170.649 191.105C170.649 191.105 165.246 186.321 165.395 185.895C163.009 192.474 161.94 205 161.94 205C161.94 205 156.429 196.915 154.304 191.105C152.179 185.296 151.14 171.975 151.14 171.975C151.14 171.975 146.521 174.656 144.38 177.211C142.239 179.765 139.756 191.105 139.756 191.105C139.756 191.105 138.001 171.929 136.051 163.316C134.101 154.702 133.7 150.187 133.288 146.803C132.093 136.98 131 121.632 131 121.632Z" fill="black"/>
</svg>
