<svg width="325" height="331" viewBox="0 0 325 331" fill="none" xmlns="http://www.w3.org/2000/svg">
<path d="M132 152C132 152 150.442 147 163 147C175.558 147 194 152 194 152" stroke="black" stroke-width="4.5" stroke-linecap="round"/>
<path d="M297.412 135.861C298.585 135.532 299.906 136.224 300.363 137.405C300.819 138.586 300.238 139.81 299.064 140.139L298.238 138L297.412 135.861ZM268.847 148.602C267.673 148.931 266.352 148.24 265.896 147.058C265.44 145.877 266.021 144.653 267.194 144.324L268.02 146.463L268.847 148.602ZM298.238 138L299.064 140.139L268.847 148.602L268.02 146.463L267.194 144.324L297.412 135.861L298.238 138Z" fill="black"/>
<path d="M27.927 135.861C26.7537 135.532 25.4326 136.224 24.9763 137.405C24.52 138.586 25.1013 139.81 26.2746 140.139L27.1008 138L27.927 135.861ZM56.4923 148.602C57.6657 148.931 58.9868 148.24 59.443 147.058C59.8993 145.877 59.3181 144.653 58.1447 144.324L57.3185 146.463L56.4923 148.602ZM27.1008 138L26.2746 140.139L56.4923 148.602L57.3185 146.463L58.1447 144.324L27.927 135.861L27.1008 138Z" fill="black"/>
<path d="M97.376 137.25C111.738 137.25 122.109 138.509 127.842 139.446C129.839 139.773 131.309 141.531 131.309 143.719V170.054C131.305 170.089 131.3 170.136 131.293 170.194C131.273 170.358 131.239 170.612 131.184 170.941C131.073 171.601 130.877 172.565 130.541 173.729C129.867 176.065 128.638 179.174 126.429 182.274C122.087 188.368 113.737 194.75 97.376 194.75C82.7459 194.75 73.4202 189.639 67.5576 184.106C61.6432 178.525 59.1349 172.398 58.4033 170.291C58.3029 170.002 58.25 169.663 58.25 169.23V144.117C58.25 141.809 59.8889 139.914 62.085 139.617C69.1682 138.659 82.1783 137.25 97.376 137.25Z" stroke="black" stroke-width="4.5"/>
<path d="M227.73 137.25C213.368 137.25 202.997 138.509 197.264 139.446C195.267 139.773 193.797 141.531 193.797 143.719V170.054C193.801 170.089 193.806 170.136 193.813 170.194C193.832 170.358 193.867 170.612 193.922 170.941C194.033 171.601 194.229 172.565 194.565 173.729C195.239 176.065 196.468 179.174 198.677 182.274C203.019 188.368 211.369 194.75 227.73 194.75C242.36 194.75 251.686 189.639 257.548 184.106C263.463 178.525 265.971 172.398 266.703 170.291C266.803 170.002 266.856 169.663 266.856 169.23V144.117C266.856 141.809 265.217 139.914 263.021 139.617C255.938 138.659 242.928 137.25 227.73 137.25Z" stroke="black" stroke-width="4.5"/>
</svg>
