<svg width="325" height="331" viewBox="0 0 325 331" fill="none" xmlns="http://www.w3.org/2000/svg">
<path d="M132 73C132 73 150.144 68 162.5 68C174.856 68 193 73 193 73" stroke="black" stroke-width="4.5" stroke-linecap="round"/>
<path d="M297.412 53.861C298.585 53.5324 299.906 54.2236 300.363 55.4048C300.819 56.5861 300.238 57.8101 299.064 58.1387L298.238 55.9999L297.412 53.861ZM268.847 66.6021C267.673 66.9307 266.352 66.2395 265.896 65.0583C265.44 63.877 266.021 62.653 267.194 62.3244L268.02 64.4632L268.847 66.6021ZM298.238 55.9999L299.064 58.1387L268.847 66.6021L268.02 64.4632L267.194 62.3244L297.412 53.861L298.238 55.9999Z" fill="black"/>
<path d="M27.927 53.861C26.7537 53.5324 25.4326 54.2236 24.9763 55.4048C24.52 56.5861 25.1013 57.8101 26.2746 58.1387L27.1008 55.9999L27.927 53.861ZM56.4923 66.6021C57.6657 66.9307 58.9868 66.2395 59.443 65.0583C59.8993 63.877 59.3181 62.653 58.1447 62.3244L57.3185 64.4632L56.4923 66.6021ZM27.1008 55.9999L26.2746 58.1387L56.4923 66.6021L57.3185 64.4632L58.1447 62.3244L27.927 53.861L27.1008 55.9999Z" fill="black"/>
<path d="M97.376 55.25C111.738 55.25 122.109 56.5088 127.842 57.4463C129.839 57.7729 131.309 59.5306 131.309 61.7188V88.0537C131.305 88.0886 131.3 88.1356 131.293 88.1943C131.273 88.3578 131.239 88.6117 131.184 88.9414C131.073 89.6015 130.877 90.5648 130.541 91.7295C129.867 94.0648 128.638 97.1739 126.429 100.274C122.087 106.368 113.737 112.75 97.376 112.75C82.7459 112.75 73.4202 107.639 67.5576 102.106C61.6432 96.5252 59.1349 90.3976 58.4033 88.291C58.3029 88.0016 58.25 87.6631 58.25 87.2305V62.1172C58.25 59.8087 59.8889 57.9141 62.085 57.6172C69.1682 56.6594 82.1783 55.2501 97.376 55.25Z" stroke="black" stroke-width="4.5"/>
<path d="M227.73 55.25C213.368 55.25 202.997 56.5088 197.264 57.4463C195.267 57.7729 193.797 59.5306 193.797 61.7188V88.0537C193.801 88.0886 193.806 88.1356 193.813 88.1943C193.832 88.3578 193.867 88.6117 193.922 88.9414C194.033 89.6015 194.229 90.5648 194.565 91.7295C195.239 94.0648 196.468 97.1739 198.677 100.274C203.019 106.368 211.369 112.75 227.73 112.75C242.36 112.75 251.686 107.639 257.548 102.106C263.463 96.5252 265.971 90.3976 266.703 88.291C266.803 88.0016 266.856 87.6631 266.856 87.2305V62.1172C266.856 59.8087 265.217 57.9141 263.021 57.6172C255.938 56.6594 242.928 55.2501 227.73 55.25Z" stroke="black" stroke-width="4.5"/>
</svg>
