<svg width="325" height="331" viewBox="0 0 325 331" fill="none" xmlns="http://www.w3.org/2000/svg">
<path d="M137 166C137 166 152.738 166 163 166C173.262 166 189 166 189 166" stroke="black" stroke-width="4.5" stroke-linecap="round"/>
<circle cx="110" cy="166" r="25" stroke="black" stroke-width="4"/>
<circle cx="216" cy="166" r="25" stroke="black" stroke-width="4"/>
<path d="M40 162.25C38.7688 162.082 37.7706 160.939 37.7706 159.696C37.7706 158.453 38.7688 157.582 40 157.75L40 160L40 162.25ZM84 163.75C85.2312 163.918 86.2294 165.061 86.2294 166.304C86.2294 167.547 85.2312 168.418 84 168.25L84 166L84 163.75ZM40 160L40 157.75L84 163.75L84 166L84 168.25L40 162.25L40 160Z" fill="black"/>
<path d="M285 162.25C286.231 162.082 287.229 160.939 287.229 159.696C287.229 158.453 286.231 157.582 285 157.75L285 160L285 162.25ZM241 163.75C239.769 163.918 238.771 165.061 238.771 166.304C238.771 167.547 239.769 168.418 241 168.25L241 166L241 163.75ZM285 160L285 157.75L241 163.75L241 166L241 168.25L285 162.25L285 160Z" fill="black"/>
</svg>
