<svg width="325" height="331" viewBox="0 0 325 331" fill="none" xmlns="http://www.w3.org/2000/svg">
<path d="M40 163.25C38.7688 163.082 37.7706 161.939 37.7706 160.696C37.7706 159.453 38.7688 158.582 40 158.75L40 161L40 163.25ZM84 164.75C85.2312 164.918 86.2294 166.061 86.2294 167.304C86.2294 168.547 85.2312 169.418 84 169.25L84 167L84 164.75ZM40 161L40 158.75L84 164.75L84 167L84 169.25L40 163.25L40 161Z" fill="black"/>
<path d="M285 163.25C286.231 163.082 287.229 161.939 287.229 160.696C287.229 159.453 286.231 158.582 285 158.75L285 161L285 163.25ZM241 164.75C239.769 164.918 238.771 166.061 238.771 167.304C238.771 168.547 239.769 169.418 241 169.25L241 167L241 164.75ZM285 161L285 158.75L241 164.75L241 167L241 169.25L285 163.25L285 161Z" fill="black"/>
<path d="M136 166C136 166 151.738 163.5 162 163.5C172.262 163.5 188 166 188 166" stroke="black" stroke-width="4.5" stroke-linecap="round"/>
<line x1="134" y1="181.182" x2="126.182" y2="189" stroke="#B4B4B4" stroke-width="4.5" stroke-linecap="round"/>
<circle cx="111" cy="166" r="25" fill="#1E1E32" fill-opacity="0.55" stroke="black" stroke-width="4"/>
<line x1="2.25" y1="-2.25" x2="13.3063" y2="-2.25" transform="matrix(0.707107 0.707107 0.707107 -0.707107 190 178)" stroke="#B4B4B4" stroke-width="4.5" stroke-linecap="round"/>
<circle cx="214" cy="166" r="25" fill="#1E1E32" fill-opacity="0.55" stroke="black" stroke-width="4"/>
</svg>
