<svg width="136" height="136" viewBox="0 0 136 136" fill="none" xmlns="http://www.w3.org/2000/svg" xmlns:xlink="http://www.w3.org/1999/xlink">
<mask id="mask0_96_223" style="mask-type:alpha" maskUnits="userSpaceOnUse" x="3" y="0" width="130" height="95">
<path d="M4.17772 47.1486C1.52785 57.179 4.17772 94.1486 4.17772 94.1486H131.87C131.87 94.1486 134.412 62.3376 131.87 47.1486C126.714 16.3379 98.8307 0.14856 68.024 0.14856C37.2173 0.14856 12.1524 16.9623 4.17772 47.1486Z" fill="#C72A2A"/>
</mask>
<g mask="url(#mask0_96_223)">
<path d="M4.17772 47.1486C1.52785 57.179 4.17772 94.1486 4.17772 94.1486H131.87C131.87 94.1486 134.412 62.3376 131.87 47.1486C126.714 16.3379 98.8307 0.14856 68.024 0.14856C37.2173 0.14856 12.1524 16.9623 4.17772 47.1486Z" fill="#C72A2A"/>
<g id="Repeat group 1_inner" data-figma-trr="l25u1.5-0f">
</g>
<use xlink:href="#Repeat%20group%201_inner" transform="translate(6.84508)"/>
<use xlink:href="#Repeat%20group%201_inner" transform="translate(13.6902)"/>
<use xlink:href="#Repeat%20group%201_inner" transform="translate(20.5352)"/>
<use xlink:href="#Repeat%20group%201_inner" transform="translate(27.3803)"/>
<use xlink:href="#Repeat%20group%201_inner" transform="translate(34.2254)"/>
<use xlink:href="#Repeat%20group%201_inner" transform="translate(41.0705)"/>
<use xlink:href="#Repeat%20group%201_inner" transform="translate(47.9156)"/>
<use xlink:href="#Repeat%20group%201_inner" transform="translate(54.7607)"/>
<use xlink:href="#Repeat%20group%201_inner" transform="translate(61.6057)"/>
<use xlink:href="#Repeat%20group%201_inner" transform="translate(68.4508)"/>
<use xlink:href="#Repeat%20group%201_inner" transform="translate(75.2959)"/>
<use xlink:href="#Repeat%20group%201_inner" transform="translate(82.141)"/>
<use xlink:href="#Repeat%20group%201_inner" transform="translate(88.9861)"/>
<use xlink:href="#Repeat%20group%201_inner" transform="translate(95.8312)"/>
<use xlink:href="#Repeat%20group%201_inner" transform="translate(102.676)"/>
<use xlink:href="#Repeat%20group%201_inner" transform="translate(109.521)"/>
<use xlink:href="#Repeat%20group%201_inner" transform="translate(116.366)"/>
<use xlink:href="#Repeat%20group%201_inner" transform="translate(123.211)"/>
<use xlink:href="#Repeat%20group%201_inner" transform="translate(130.057)"/>
<use xlink:href="#Repeat%20group%201_inner" transform="translate(136.902)"/>
<use xlink:href="#Repeat%20group%201_inner" transform="translate(143.747)"/>
<use xlink:href="#Repeat%20group%201_inner" transform="translate(150.592)"/>
<use xlink:href="#Repeat%20group%201_inner" transform="translate(157.437)"/>
<use xlink:href="#Repeat%20group%201_inner" transform="translate(164.282)"/>
<path d="M124.866 64.4825C125.185 64.3941 125.5 64.6334 125.5 64.964V81.1486H117.5V68.4288C117.5 67.3058 118.249 66.3202 119.331 66.0197L124.866 64.4825Z" fill="#555555" stroke="#434343"/>
</g>
<path d="M67.7763 87.4324C92.7672 80.5031 124.65 79.5649 132.826 79.4379C133.93 79.4207 134.8 80.3155 134.832 81.4196C135.011 87.5811 136 88.4875 136 98.5353V119.396C136 123.078 135.25 126.473 132.99 130.244C130.731 134.015 119.107 134.286 96.6809 130.244C74.2549 126.201 45.6161 130.244 32.3931 134.286C19.1701 138.329 1.81441 130.244 1.81441 130.244C1.81441 130.244 1.25631 126.311 0.805553 115.715C0.693689 113.085 0.973543 110.119 1.26888 106.98L1.81441 96.6946C1.71213 92.8512 0.609936 87.1413 0.174237 82.4369C0.0420172 81.0093 1.46779 80.002 2.81398 80.4954C12.2473 83.9524 43.5211 94.1577 67.7763 87.4324Z" fill="#BA2727"/>
<mask id="mask1_96_223" style="mask-type:alpha" maskUnits="userSpaceOnUse" x="0" y="79" width="136" height="57">
<path d="M67.7763 87.4324C92.7672 80.5031 124.65 79.5649 132.826 79.4379C133.93 79.4207 134.8 80.3155 134.832 81.4196C135.011 87.5811 136 88.4875 136 98.5353V119.396C136 123.078 135.25 126.473 132.99 130.244C130.731 134.015 119.107 134.286 96.6809 130.244C74.2549 126.201 45.6161 130.244 32.3931 134.286C19.1701 138.329 1.81441 130.244 1.81441 130.244C1.81441 130.244 1.25631 126.311 0.805553 115.715C0.693689 113.085 0.973543 110.119 1.26888 106.98L1.81441 96.6946C1.71213 92.8512 0.609936 87.1413 0.174237 82.4369C0.0420172 81.0093 1.46779 80.002 2.81398 80.4954C12.2473 83.9524 43.5211 94.1577 67.7763 87.4324Z" fill="#BA2727"/>
</mask>
<g mask="url(#mask1_96_223)">
<g id="Repeat group 1_2_inner" data-figma-trr="l25u1.5-0f">
<path d="M3.58645 148.189C3.58645 142.596 3.30699 130.702 3.09316 128.227C2.86605 125.598 2.46013 123.08 2.2463 120.675C1.58467 113.233 0.343013 100.495 0.129187 96.8999C0.0593236 95.8371 -0.0804037 94.7192 -0.152384 88.2747C-0.224365 81.8302 -0.224365 70.093 -0.224365 58" stroke="black" stroke-opacity="0.03" stroke-width="1.5" stroke-linecap="round"/>
</g>
<use xlink:href="#Repeat%20group%201_2_inner" transform="translate(5.71622)"/>
<use xlink:href="#Repeat%20group%201_2_inner" transform="translate(11.4324)"/>
<use xlink:href="#Repeat%20group%201_2_inner" transform="translate(17.1486)"/>
<use xlink:href="#Repeat%20group%201_2_inner" transform="translate(22.8649)"/>
<use xlink:href="#Repeat%20group%201_2_inner" transform="translate(28.5811)"/>
<use xlink:href="#Repeat%20group%201_2_inner" transform="translate(34.2973)"/>
<use xlink:href="#Repeat%20group%201_2_inner" transform="translate(40.0135)"/>
<use xlink:href="#Repeat%20group%201_2_inner" transform="translate(45.7297)"/>
<use xlink:href="#Repeat%20group%201_2_inner" transform="translate(51.4459)"/>
<use xlink:href="#Repeat%20group%201_2_inner" transform="translate(57.1622)"/>
<use xlink:href="#Repeat%20group%201_2_inner" transform="translate(62.8784)"/>
<use xlink:href="#Repeat%20group%201_2_inner" transform="translate(68.5946)"/>
<use xlink:href="#Repeat%20group%201_2_inner" transform="translate(74.3108)"/>
<use xlink:href="#Repeat%20group%201_2_inner" transform="translate(80.027)"/>
<use xlink:href="#Repeat%20group%201_2_inner" transform="translate(85.7432)"/>
<use xlink:href="#Repeat%20group%201_2_inner" transform="translate(91.4595)"/>
<use xlink:href="#Repeat%20group%201_2_inner" transform="translate(97.1757)"/>
<use xlink:href="#Repeat%20group%201_2_inner" transform="translate(102.892)"/>
<use xlink:href="#Repeat%20group%201_2_inner" transform="translate(108.608)"/>
<use xlink:href="#Repeat%20group%201_2_inner" transform="translate(114.324)"/>
<use xlink:href="#Repeat%20group%201_2_inner" transform="translate(120.041)"/>
<use xlink:href="#Repeat%20group%201_2_inner" transform="translate(125.757)"/>
<use xlink:href="#Repeat%20group%201_2_inner" transform="translate(131.473)"/>
<use xlink:href="#Repeat%20group%201_2_inner" transform="translate(137.189)"/>
</g>
</svg>
