<svg width="325" height="331" viewBox="0 0 325 331" fill="none" xmlns="http://www.w3.org/2000/svg">
  <!-- Round eyes  left iris center (94.5741, 85.3432) r17, right (230.039, 85.3432) r17 -->
  <path d="M63.1562 85.3432C63.1562 85.3432 63.1562 70.4788 94.5741 70.4788C125.992 70.4788 125.992 85.3432 125.992 85.3432C125.992 85.3432 125.992 100.208 94.5741 100.208C63.1562 100.208 63.1562 85.3432 63.1562 85.3432Z" fill="#FDF8EF"/>
  <circle cx="94.5741" cy="85.3432" r="17" fill="#1C1C2E"/>
  <path d="M198.621 85.3432C198.621 85.3432 198.621 70.4788 230.039 70.4788C261.457 70.4788 261.457 85.3432 261.457 85.3432C261.457 85.3432 261.457 100.208 230.039 100.208C198.621 100.208 198.621 85.3432 198.621 85.3432Z" fill="#FDF8EF"/>
  <circle cx="230.039" cy="85.3432" r="17" fill="#1C1C2E"/>
</svg>
