<svg width="325" height="331" viewBox="0 0 325 331" fill="none" xmlns="http://www.w3.org/2000/svg">
<path d="M30.3684 55.3655C30.3684 55.3655 72.1349 38.4951 88.4696 30.6782C104.804 22.8614 129 16 163 16C197 16 225.094 26.8314 239.65 34.6782C254.206 42.5251 295.632 55.3655 295.632 55.3655C299.571 63.5976 303 75.0001 303 75.0001C303 75.0001 261.756 60.5056 239.65 54.2186C217.545 47.9316 200 34.6782 163 34.6782C126 34.6782 120.575 41.6109 88.4696 50.4809C56.364 59.3508 23 75.0001 23 75.0001C23 75.0001 26.2511 64.1954 30.3684 55.3655Z" fill="#FF4949"/>
</svg>
