<svg width="343" height="434" viewBox="0 0 343 434" fill="none" xmlns="http://www.w3.org/2000/svg">
<path d="M155 0L133 46C133 46 109.526 52.2484 90 46C70.4738 39.7516 39 21 39 21C39 21 42.1421 46.8937 48 59C53.8579 71.1063 39 74 39 74C39 74 39.0166 88.5885 31 93C22.9834 97.4115 0 98 0 98C0 98 34.1635 144.211 39 157.5C43.8365 170.789 33 210 33 210C33 210 57 180 73 187C73 148.5 73 148.5 105 164L134 128L143 157.5C143 157.5 154.133 137.371 162 133C171 128 185 117.333 193 116V148.5L187 187L215.5 157.5L244 128C244 128 250 142 274.5 157.5C299 173 325 204 325 204C325 204 316 155 316 133C316 111 329 38 329 38L285 74C285 74 280.175 51.163 273.5 38C266.825 24.837 243 0 243 0C243 0 237.408 18.924 230 28C222.592 37.076 206 46 206 46L178 28L155 0Z" fill="white"/>
</svg>
