<svg width="325" height="331" viewBox="0 0 325 331" fill="none" xmlns="http://www.w3.org/2000/svg">
  <!-- Reference sheet: head + placement guides for hats, eyes, mouth, accessories -->
  <path d="M322.183 170.001C323.757 173.831 324.319 177.661 323.87 181.491C323.42 185.321 322.295 188.926 320.496 192.306C318.697 195.685 317.347 199.177 316.448 202.782C315.548 206.387 315.211 210.217 315.435 214.272C315.66 218.328 314.873 222.045 313.074 225.425C311.275 228.804 308.688 231.733 305.315 234.212C301.941 236.69 300.142 240.069 299.917 244.35C299.692 248.631 297.893 251.785 294.519 253.813C291.145 255.841 288.671 258.657 287.097 262.262C285.523 265.866 284.173 269.697 283.049 273.752C281.924 277.807 278.775 279.835 273.602 279.835C268.429 279.835 264.269 280.849 261.12 282.877C257.971 284.904 255.497 287.721 253.698 291.326C251.899 294.93 248.862 296.733 244.589 296.733C240.316 296.733 237.055 298.31 234.805 301.464C232.556 304.618 229.52 306.533 225.697 307.209C221.873 307.885 218.724 310.138 216.25 313.968C213.776 317.799 210.628 319.826 206.804 320.052C202.981 320.277 199.27 320.84 195.671 321.741C192.073 322.643 188.474 323.656 184.876 324.783C181.277 325.909 177.678 327.487 174.08 329.514C170.481 331.542 166.77 330.19 162.947 325.459C159.123 320.727 155.3 320.277 151.477 324.107C147.653 327.937 144.055 328.162 140.681 324.783C137.307 321.403 133.821 319.376 130.223 318.7C126.624 318.024 123.363 316.447 120.439 313.968C117.515 311.49 114.366 309.688 110.993 308.561C107.619 307.435 103.796 307.322 99.5224 308.223C95.2492 309.124 92.1004 307.66 90.0762 303.83C88.052 300 84.6784 298.535 79.9553 299.436C75.2322 300.338 71.971 298.761 70.1717 294.705C68.3725 290.65 65.1113 288.735 60.3882 288.96C55.6651 289.185 52.6288 287.27 51.2794 283.215C49.9299 279.159 46.8936 276.794 42.1705 276.118C37.4474 275.442 35.3108 272.513 35.7606 267.331C36.2104 262.149 35.8731 257.756 34.7485 254.151C33.624 250.546 29.8005 248.631 23.2781 248.406C16.7558 248.18 15.0689 245.139 18.2177 239.281C21.3664 233.423 21.9287 229.03 19.9045 226.101C17.8803 223.172 14.7316 220.468 10.4583 217.99C6.18501 215.512 3.93592 212.357 3.71101 208.527C3.4861 204.697 4.16082 200.754 5.73519 196.699C7.30956 192.643 7.75938 188.926 7.08465 185.546C6.40992 182.167 5.06046 178.675 3.03628 175.07C1.01209 171.465 0.224909 167.86 0.674728 164.255C1.12455 160.651 1.12455 156.933 0.674728 153.103C0.224909 149.273 0 145.555 0 141.951C0 138.346 0 134.628 0 130.798C0 126.968 1.57437 123.476 4.7231 120.322C7.87183 117.167 9.89602 113.788 10.7957 110.183C11.6953 106.578 13.607 103.537 16.5308 101.058C19.4547 98.58 20.4668 94.9752 19.5671 90.2439C18.6675 85.5125 20.1294 82.2457 23.9529 80.4432C27.7763 78.6408 29.688 75.374 29.688 70.6426C29.688 65.9113 32.2745 63.433 37.4474 63.2077C42.6203 62.9824 45.8815 60.9547 47.231 57.1245C48.5804 53.2944 49.9299 49.3516 51.2794 45.2962C52.6288 41.2408 54.8779 38.0865 58.0266 35.8335C61.1754 33.5805 64.7739 32.2287 68.8223 31.7781C72.8707 31.3275 76.8066 30.8769 80.63 30.4263C84.4535 29.9757 87.9396 28.9618 91.0883 27.3847C94.2371 25.8076 97.1609 23.6672 99.8598 20.9636C102.559 18.26 105.145 14.6552 107.619 10.1491C110.093 5.6431 113.242 3.27743 117.065 3.05213C120.889 2.82683 124.825 2.71418 128.873 2.71418C132.921 2.71418 136.857 4.17864 140.681 7.10756C144.504 10.0365 148.215 10.825 151.814 9.47323C155.412 8.12142 159.123 5.75575 162.947 2.37623C166.77 -1.0033 170.369 -0.777995 173.743 3.05213C177.116 6.88226 180.715 8.34672 184.538 7.44552C188.362 6.54431 192.185 6.20636 196.009 6.43166C199.832 6.65696 203.768 6.31901 207.816 5.4178C211.865 4.51659 215.238 5.8684 217.937 9.47323C220.636 13.0781 224.01 15.2184 228.058 15.8943C232.107 16.5702 234.918 19.1612 236.492 23.6672C238.067 28.1733 240.653 30.9895 244.252 32.116C247.85 33.2426 251.786 34.0311 256.059 34.4817C260.333 34.9323 263.706 36.6221 266.18 39.551C268.654 42.4799 270.679 45.8594 272.253 49.6896C273.827 53.5197 276.976 55.7727 281.699 56.4486C286.422 57.1245 288.896 59.7155 289.121 64.2215C289.346 68.7276 291.82 71.7691 296.543 73.3462C301.266 74.9234 303.965 77.7396 304.64 81.7951C305.315 85.8505 305.989 89.7933 306.664 93.6234C307.339 97.4535 308.126 101.171 309.026 104.776C309.925 108.381 311.837 111.648 314.761 114.576C317.685 117.505 318.472 121.11 317.122 125.391C315.773 129.672 314.536 133.727 313.411 137.557C312.287 141.387 313.074 144.992 315.773 148.372C318.472 151.751 319.821 155.243 319.821 158.848C319.821 162.453 320.608 166.171 322.183 170.001Z" fill="#72FF5D" opacity="0.35"/>
  <!-- Face center -->
  <line x1="162.5" y1="0" x2="162.5" y2="331" stroke="#254CA4" stroke-width="1" stroke-dasharray="4 4" opacity="0.5"/>
  <!-- Hat brim anchor (yH54) -->
  <line x1="0" y1="54" x2="325" y2="54" stroke="#E07820" stroke-width="1" stroke-dasharray="6 4" opacity="0.7"/>
  <!-- Eye row -->
  <line x1="0" y1="85.3" x2="325" y2="85.3" stroke="#254CA4" stroke-width="1" stroke-dasharray="4 4" opacity="0.5"/>
  <circle cx="94.5" cy="85.3" r="3" fill="#254CA4"/>
  <circle cx="230" cy="85.3" r="3" fill="#254CA4"/>
  <!-- Mouth -->
  <circle cx="161.433" cy="123.285" r="3" fill="#E03E3E"/>
  <rect x="133.881" y="99.7687" width="54.0033" height="25.6287" rx="12.8143" fill="none" stroke="#3BD424" stroke-width="1" stroke-dasharray="3 3" opacity="0.7"/>
</svg>
